<svg width="239" height="11" viewBox="0 0 239 11" fill="none" xmlns="http://www.w3.org/2000/svg">
<path d="M-2.03451e-05 5.33325C-2.03451e-05 8.27877 2.38779 10.6666 5.33331 10.6666C8.27883 10.6666 10.6666 8.27877 10.6666 5.33325C10.6666 2.38773 8.27883 -8.13802e-05 5.33331 -8.13802e-05C2.38779 -8.13802e-05 -2.03451e-05 2.38773 -2.03451e-05 5.33325ZM228 5.33325C228 8.27877 230.388 10.6666 233.333 10.6666C236.279 10.6666 238.667 8.27877 238.667 5.33325C238.667 2.38773 236.279 -8.13802e-05 233.333 -8.13802e-05C230.388 -8.13802e-05 228 2.38773 228 5.33325ZM5.33331 5.33325V6.33325H233.333V5.33325V4.33325H5.33331V5.33325Z" fill="#3E7B27"/>
</svg>
