<svg width="44" height="44" viewBox="0 0 44 44" fill="none" xmlns="http://www.w3.org/2000/svg">
<path fill-rule="evenodd" clip-rule="evenodd" d="M17.8573 13.784C19.5687 12.896 21.5166 12.5703 23.4238 12.8531C25.3693 13.1416 27.1703 14.0481 28.561 15.4388C29.9517 16.8295 30.8582 18.6305 31.1467 20.576C31.4295 22.4832 31.1038 24.4311 30.2158 26.1425C29.3277 27.8539 27.9227 29.2417 26.2005 30.1086C24.4782 30.9754 22.5265 31.2772 20.6229 30.9708C18.7193 30.6645 16.9608 29.7658 15.5974 28.4024C14.234 27.039 13.3353 25.2805 13.029 23.3769C12.7226 21.4733 13.0244 19.5216 13.8912 17.7993C14.7581 16.0771 16.1459 14.6721 17.8573 13.784ZM22.886 16.4801C21.7416 16.3104 20.5729 16.5059 19.5461 17.0387C18.5192 17.5715 17.6865 18.4145 17.1664 19.4478C16.6463 20.4812 16.4653 21.6522 16.6491 22.7944C16.8329 23.9365 17.3721 24.9917 18.1901 25.8097C19.0081 26.6277 20.0633 27.1669 21.2054 27.3507C22.3476 27.5345 23.5186 27.3535 24.552 26.8334C25.5853 26.3133 26.4283 25.4806 26.9611 24.4537C27.494 23.4269 27.6894 22.2582 27.5197 21.1138C27.3466 19.9466 26.8027 18.8659 25.9683 18.0315C25.1339 17.1971 24.0532 16.6532 22.886 16.4801Z" fill="#091B12"/>
<path d="M32.0833 10.0833C31.0708 10.0833 30.25 10.9041 30.25 11.9166C30.25 12.9291 31.0708 13.7499 32.0833 13.7499H32.1016C33.1142 13.7499 33.935 12.9291 33.935 11.9166C33.935 10.9041 33.1142 10.0833 32.1016 10.0833H32.0833Z" fill="#091B12"/>
<path fill-rule="evenodd" clip-rule="evenodd" d="M1.83331 12.8333C1.83331 6.75812 6.75818 1.83325 12.8333 1.83325H31.1666C37.2418 1.83325 42.1666 6.75812 42.1666 12.8333V31.1666C42.1666 37.2417 37.2418 42.1666 31.1666 42.1666H12.8333C6.75818 42.1666 1.83331 37.2417 1.83331 31.1666V12.8333ZM12.8333 5.49992C8.78322 5.49992 5.49998 8.78316 5.49998 12.8333V31.1666C5.49998 35.2167 8.78322 38.4999 12.8333 38.4999H31.1666C35.2167 38.4999 38.5 35.2167 38.5 31.1666V12.8333C38.5 8.78316 35.2167 5.49992 31.1666 5.49992H12.8333Z" fill="#091B12"/>
</svg>
