<svg width="45" height="45" viewBox="0 0 45 45" fill="none" xmlns="http://www.w3.org/2000/svg">
<path d="M17.7979 6.89941L16.6992 7.03125C16.6992 7.03125 11.7719 7.56958 8.17383 10.459H8.12988L8.08594 10.5029C7.27844 11.2445 6.92688 12.1564 6.37207 13.4912C5.81726 14.8261 5.224 16.5289 4.70215 18.4131C3.65845 22.1869 2.8125 26.7572 2.8125 30.9375V31.2891L2.98828 31.6406C4.29016 33.9258 6.60278 35.3815 8.74512 36.3867C10.8875 37.392 12.7386 37.9248 14.0186 37.9688L14.8535 38.0127L15.293 37.2656L16.8311 34.541C18.4625 34.9091 20.3412 35.1562 22.5 35.1562C24.6588 35.1562 26.5375 34.9091 28.1689 34.541L29.707 37.2656L30.1465 38.0127L30.9814 37.9688C32.2614 37.9248 34.1125 37.392 36.2549 36.3867C38.3972 35.3815 40.7098 33.9258 42.0117 31.6406L42.1875 31.2891V30.9375C42.1875 26.7572 41.3416 22.1869 40.2979 18.4131C39.776 16.5289 39.1827 14.8261 38.6279 13.4912C38.0731 12.1564 37.7216 11.2445 36.9141 10.5029L36.8701 10.459H36.8262C33.2281 7.56958 28.3008 7.03125 28.3008 7.03125L27.2021 6.89941L26.8066 7.91016C26.8066 7.91016 26.4001 8.93738 26.1475 10.1074C24.5544 9.89319 23.2526 9.84375 22.5 9.84375C21.7474 9.84375 20.4456 9.89319 18.8525 10.1074C18.5999 8.93738 18.1934 7.91016 18.1934 7.91016L17.7979 6.89941ZM15.8643 10.1074C15.9247 10.3052 15.9851 10.4755 16.04 10.6348C14.2218 11.0852 12.2827 11.7719 10.5029 12.876L11.9971 15.249C15.6445 12.9858 20.885 12.6562 22.5 12.6562C24.115 12.6562 29.3555 12.9858 33.0029 15.249L34.4971 12.876C32.7173 11.7719 30.7782 11.0852 28.96 10.6348C29.0149 10.4755 29.0753 10.3052 29.1357 10.1074C30.4486 10.3711 32.9535 10.9753 35.0244 12.6123C35.0134 12.6178 35.5518 13.4308 36.0352 14.5898C36.5295 15.7819 37.0789 17.3694 37.5732 19.1602C38.5236 22.5934 39.2706 26.7737 39.3311 30.4541C38.4467 31.8054 36.8042 33.0249 35.0684 33.8379C33.5522 34.5465 32.3547 34.8047 31.6406 34.9365L30.9375 33.75C31.355 33.5962 31.767 33.4259 32.124 33.2666C34.2883 32.3163 35.4639 31.2891 35.4639 31.2891L33.6182 29.1797C33.6182 29.1797 32.8271 29.9048 30.9814 30.7178C29.1357 31.5308 26.3177 32.3438 22.5 32.3438C18.6823 32.3438 15.8643 31.5308 14.0186 30.7178C12.1729 29.9048 11.3818 29.1797 11.3818 29.1797L9.53613 31.2891C9.53613 31.2891 10.7117 32.3163 12.876 33.2666C13.233 33.4259 13.645 33.5962 14.0625 33.75L13.3594 34.9365C12.6453 34.8047 11.4478 34.5465 9.93164 33.8379C8.1958 33.0249 6.55334 31.8054 5.66895 30.4541C5.72937 26.7737 6.47644 22.5934 7.42676 19.1602C7.92114 17.3694 8.47046 15.7819 8.96484 14.5898C9.44824 13.4308 9.98657 12.6178 9.97559 12.6123C12.0465 10.9753 14.5514 10.3711 15.8643 10.1074ZM17.5781 19.6875C16.4905 19.6875 15.5292 20.3082 14.9414 21.0938C14.3536 21.8793 14.0625 22.8461 14.0625 23.9062C14.0625 24.9664 14.3536 25.9332 14.9414 26.7188C15.5292 27.5043 16.4905 28.125 17.5781 28.125C18.6658 28.125 19.6271 27.5043 20.2148 26.7188C20.8026 25.9332 21.0938 24.9664 21.0938 23.9062C21.0938 22.8461 20.8026 21.8793 20.2148 21.0938C19.6271 20.3082 18.6658 19.6875 17.5781 19.6875ZM27.4219 19.6875C26.3342 19.6875 25.3729 20.3082 24.7852 21.0938C24.1974 21.8793 23.9062 22.8461 23.9062 23.9062C23.9062 24.9664 24.1974 25.9332 24.7852 26.7188C25.3729 27.5043 26.3342 28.125 27.4219 28.125C28.5095 28.125 29.4708 27.5043 30.0586 26.7188C30.6464 25.9332 30.9375 24.9664 30.9375 23.9062C30.9375 22.8461 30.6464 21.8793 30.0586 21.0938C29.4708 20.3082 28.5095 19.6875 27.4219 19.6875ZM17.5781 22.5C17.655 22.5 17.7539 22.5275 17.9297 22.7637C18.1055 22.9999 18.2812 23.4119 18.2812 23.9062C18.2812 24.4006 18.1055 24.8126 17.9297 25.0488C17.7539 25.285 17.655 25.3125 17.5781 25.3125C17.5012 25.3125 17.4023 25.285 17.2266 25.0488C17.0508 24.8126 16.875 24.4006 16.875 23.9062C16.875 23.4119 17.0508 22.9999 17.2266 22.7637C17.4023 22.5275 17.5012 22.5 17.5781 22.5ZM27.4219 22.5C27.4988 22.5 27.5977 22.5275 27.7734 22.7637C27.9492 22.9999 28.125 23.4119 28.125 23.9062C28.125 24.4006 27.9492 24.8126 27.7734 25.0488C27.5977 25.285 27.4988 25.3125 27.4219 25.3125C27.345 25.3125 27.2461 25.285 27.0703 25.0488C26.8945 24.8126 26.7188 24.4006 26.7188 23.9062C26.7188 23.4119 26.8945 22.9999 27.0703 22.7637C27.2461 22.5275 27.345 22.5 27.4219 22.5Z" fill="black"/>
</svg>
