<svg width="46" height="46" viewBox="0 0 46 46" fill="none" xmlns="http://www.w3.org/2000/svg">
<path d="M23 4.30615C18.4488 4.30634 14.0462 5.92595 10.5799 8.87519C7.11362 11.8244 4.80985 15.9108 4.08081 20.4032C3.35177 24.8956 4.24504 29.5009 6.60078 33.3949C8.95652 37.289 12.621 40.2177 16.9385 41.6572C17.8969 41.8249 18.2563 41.2499 18.2563 40.7468C18.2563 40.2916 18.2323 38.7822 18.2323 37.177C13.4166 38.0634 12.1708 36.0031 11.7875 34.925C11.3621 33.8764 10.6878 32.9472 9.82289 32.2176C9.15205 31.8582 8.19372 30.9718 9.79891 30.9479C10.4118 31.0144 10.9997 31.2276 11.5127 31.5696C12.0257 31.9116 12.4487 32.3722 12.7458 32.9124C13.0079 33.3833 13.3604 33.7979 13.7831 34.1323C14.2057 34.4668 14.6902 34.7146 15.2088 34.8615C15.7274 35.0084 16.2698 35.0515 16.8051 34.9884C17.3403 34.9252 17.8579 34.7571 18.3281 34.4936C18.411 33.5192 18.8453 32.6082 19.55 31.9302C15.2854 31.451 10.8291 29.7978 10.8291 22.4666C10.8022 20.5617 11.5051 18.7187 12.7937 17.3156C12.2078 15.66 12.2763 13.8431 12.9854 12.2364C12.9854 12.2364 14.5905 11.7333 18.2562 14.201C21.3924 13.3385 24.7033 13.3385 27.8396 14.201C31.5051 11.7093 33.1104 12.2364 33.1104 12.2364C33.8195 13.8431 33.8881 15.66 33.3021 17.3156C34.5945 18.7163 35.2981 20.5609 35.2666 22.4666C35.2666 29.8218 30.7864 31.451 26.5218 31.9302C26.9793 32.3938 27.3315 32.9504 27.5548 33.5622C27.778 34.174 27.867 34.8268 27.8156 35.476C27.8156 38.0396 27.7916 40.0999 27.7916 40.7468C27.7916 41.25 28.151 41.8489 29.1093 41.6573C33.4193 40.2061 37.0732 37.2705 39.4189 33.3744C41.7646 29.4784 42.6494 24.8755 41.9153 20.3874C41.1812 15.8994 38.8761 11.8183 35.4113 8.87263C31.9465 5.92698 27.5477 4.30852 23 4.30615Z" fill="black"/>
</svg>
